# xmcd CD database file
#
# Track frame offsets:
#	150
#	17779
#	34412
#	50582
#	66570
#	85698
#	100644
#	117673
#	131265
#	144158
#	158602
#	174123
#	188032
#	203177
#	218695
#	232484
#
# Disc length: 3338 seconds
#
# Revision: 2
# Processed by: cddbd v1.5.2PL0 Copyright (c) Steve Scherf et al.
# Submitted via: CDex 1.50
#
DISCID=dd0d0810
DTITLE=Verschiedene - Die schönsten Duette
DYEAR=2007
DGENRE=Other
TTITLE0=Nino de Angelo and Francine Jordi - Und wenn ich abends einschlaf`
TTITLE1=Rosanno Rocci and Michael Morgan - Io vivo per te
TTITLE2=Kim Harding and Howard Carpendale - Du bist die Antwort für mich
TTITLE3=Uwe Busse and Simone - Merci mon amour (geheime Leidenschaft)
TTITLE4=Ireen Sheer and Bernhard Brink - Du gehst fort
TTITLE5=Petra Frey and Andy Borg - Zusammen geh`n
TTITLE6=Stefanie Hertel and Stefan Mross - Fernando (und der Himmel war zum Greifen nah)
TTITLE7=Nockalm Quintett and Stefanie - Dort auf Wolke sieben
TTITLE8=Vincent and Fernando - Ich schenk` Dir Liebe
TTITLE9=Monika Martin and Karel Gott - Lass die Träume nie verloren geh`n 
TTITLE10=Oswald Sattler and Jantje Smit - Ich zeig` Dir die Berge
TTITLE11=Marianne and Michael - Das Zauberwort heißt Liebe
TTITLE12=Karl Moik and Hias - Lausbuam war`ma, Lausbuam bleib`ma
TTITLE13=Judith and Mel - Es gibt immer einen Weg
TTITLE14=Christine Nachbauer and Thomas Kießling - Freunde, die zusammenstehn
TTITLE15=Astrid and Freddy Breck - Ein Vaterunser für die Welt
EXTD=YEAR: 2007
EXTT0=
EXTT1=
EXTT2=
EXTT3=
EXTT4=
EXTT5=
EXTT6=
EXTT7=
EXTT8=
EXTT9=
EXTT10=
EXTT11=
EXTT12=
EXTT13=
EXTT14=
EXTT15=
PLAYORDER=
